<svg width="32" height="32" viewBox="0 0 32 32" fill="none" xmlns="http://www.w3.org/2000/svg">
<circle cx="16" cy="16" r="16" fill="#F8F6F0"/>
<path d="M17.8643 11.0525C20.515 9.18099 24.1507 9.87337 25.9736 12.5974C27.7974 15.3234 27.1255 19.0655 24.4746 20.9412C23.6856 21.4994 22.7928 21.8439 21.8643 21.9578C21.2853 22.0289 20.6936 22.0099 20.1064 21.8982C18.767 21.644 17.5801 20.9325 16.7129 19.8757L15.1367 20.948C12.4859 22.8197 8.84929 22.1272 7.02637 19.4031C5.20246 16.677 5.87511 12.934 8.52637 11.0583C9.31515 10.5004 10.2075 10.1566 11.1357 10.0427C11.7146 9.97162 12.3064 9.98969 12.8936 10.1013C14.2329 10.3555 15.42 11.0673 16.2871 12.1238L17.8643 11.0525ZM12.6631 11.3845C12.2009 11.2966 11.7376 11.2822 11.2861 11.3376C10.5627 11.4264 9.86548 11.6946 9.24512 12.1335C7.17106 13.6009 6.64426 16.5309 8.07129 18.6638C9.49826 20.7962 12.3477 21.3374 14.4219 19.8699L14.4268 19.8669L17.5928 17.7136C18.334 17.2097 18.6428 16.2867 18.4199 15.4519L13.6729 18.7556C12.1966 19.798 10.1726 19.4127 9.15723 17.8953C8.66584 17.1611 8.48116 16.2705 8.63867 15.3943C8.79618 14.5182 9.27829 13.7547 9.99219 13.2498C10.7061 12.7445 11.5715 12.5547 12.4238 12.7166C13.0921 12.8436 13.693 13.1762 14.1582 13.6677C14.3208 13.4949 14.5038 13.3372 14.707 13.199L15.2188 12.8503C14.55 12.0872 13.6628 11.5742 12.6631 11.3845ZM24.9287 13.3367C23.5018 11.2043 20.6523 10.6623 18.5781 12.1296L18.5732 12.1335L15.4072 14.2859C14.6659 14.7899 14.3571 15.7137 14.5801 16.5486L19.3271 13.2449C20.8033 12.2024 22.8273 12.5871 23.8428 14.1042C24.3342 14.8385 24.5188 15.7299 24.3613 16.6062C24.2038 17.4822 23.7217 18.2459 23.0078 18.7507C22.2939 19.2559 21.4285 19.4458 20.5762 19.2839C19.9075 19.1568 19.3061 18.8239 18.8408 18.3318C18.6782 18.5046 18.4962 18.6633 18.293 18.8015L17.7803 19.1492C18.4491 19.9129 19.3368 20.4262 20.3369 20.616C20.7991 20.7039 21.2624 20.7183 21.7139 20.6628C22.4372 20.5741 23.1345 20.3058 23.7549 19.8669C25.8289 18.3997 26.3556 15.4695 24.9287 13.3367ZM12.1943 13.9988C11.6724 13.8996 11.1477 14.0149 10.7109 14.324L10.5537 14.447C10.2042 14.7497 9.97007 15.1625 9.88574 15.6316C9.78939 16.1678 9.9016 16.707 10.2021 17.156C10.821 18.0809 12.0575 18.3158 12.957 17.6794L12.959 17.6785L13.4951 17.3044C13.1661 16.5004 13.1633 15.6124 13.4492 14.825C13.1492 14.3887 12.7068 14.0963 12.1943 13.9988ZM22.7979 14.8435C22.179 13.9192 20.9433 13.6842 20.0439 14.3201L20.042 14.322L19.5039 14.6951C19.8332 15.4992 19.8366 16.3869 19.5508 17.1746C19.8509 17.6112 20.2937 17.9042 20.8066 18.0017C21.3284 18.1007 21.8524 17.9855 22.2891 17.6765L22.4463 17.5535C22.7959 17.2508 23.0299 16.838 23.1143 16.3689C23.2107 15.8326 23.0984 15.2926 22.7979 14.8435Z" fill="#5B2D2D"/>
</svg>
