<svg width="256" height="256" viewBox="0 0 256 256" fill="none" xmlns="http://www.w3.org/2000/svg">
<circle cx="128" cy="128" r="128" fill="#F8F6F0"/>
<path d="M139.559 85.9181C162.027 70.0536 192.849 75.9228 208.3 99.0128C223.76 122.12 218.064 153.842 195.591 169.74C188.903 174.473 181.336 177.392 173.465 178.357C168.558 178.959 163.546 178.8 158.569 177.854C147.214 175.699 137.153 169.666 129.803 160.708L116.441 169.795C93.9723 185.659 63.1509 179.79 47.6995 156.7C32.2395 133.594 37.9368 101.871 60.4094 85.9728C67.0975 81.2405 74.6633 78.3216 82.5344 77.3566C87.4416 76.7538 92.454 76.914 97.4309 77.8605C108.785 80.0151 118.845 86.0473 126.196 95.004L139.559 85.9181ZM199.445 105.278C187.349 87.2034 163.193 82.6134 145.612 95.0538L145.571 95.0821L118.736 113.331C112.452 117.603 109.836 125.431 111.726 132.507L151.96 104.501C164.473 95.6633 181.634 98.9284 190.241 111.791C194.406 118.014 195.969 125.564 194.634 132.991C193.299 140.418 189.215 146.893 183.163 151.173C177.111 155.456 169.773 157.063 162.547 155.691C156.883 154.614 151.787 151.799 147.844 147.632C146.466 149.096 144.915 150.432 143.194 151.603L138.85 154.556C144.519 161.027 152.044 165.374 160.52 166.983L160.522 166.984C164.439 167.729 168.363 167.851 172.19 167.381H172.192C178.325 166.629 184.238 164.355 189.497 160.634C207.077 148.197 211.541 123.357 199.445 105.278ZM95.4778 88.7296C91.5602 87.9844 87.6362 87.8631 83.8098 88.3331H83.8089C77.6759 89.0848 71.7616 91.3578 66.5022 95.0792C48.9222 107.516 44.46 132.356 56.5559 150.435C68.6515 168.51 92.8079 173.101 110.389 160.66L110.429 160.631L137.264 142.383C143.548 138.111 146.164 130.283 144.274 123.206L104.039 151.212C91.526 160.05 74.3658 156.785 65.7591 143.922C61.5937 137.699 60.0314 130.15 61.3665 122.723C62.7015 115.296 66.7844 108.82 72.8362 104.54C78.8883 100.257 86.2265 98.6499 93.4524 100.023C99.1164 101.099 104.212 103.914 108.155 108.08C109.533 106.616 111.084 105.281 112.806 104.11L117.15 101.156C111.481 94.6853 103.955 90.339 95.4798 88.7306L95.4778 88.7296ZM91.4993 110.893C87.0755 110.052 82.6326 111.026 78.9309 113.646L78.929 113.648C75.228 116.265 72.7539 120.186 71.9368 124.732C71.1197 129.277 72.0668 133.849 74.6145 137.655H74.6155C79.8606 145.495 90.3395 147.487 97.9641 142.093L97.9807 142.081L102.531 138.913C99.7396 132.092 99.7101 124.558 102.139 117.879C99.5951 114.187 95.8404 111.718 91.4993 110.893ZM181.385 118.058C176.14 110.218 165.66 108.226 158.035 113.62L158.019 113.632L153.469 116.798C156.261 123.619 156.288 131.153 153.86 137.832C156.403 141.526 160.158 143.996 164.5 144.821C168.924 145.662 173.367 144.687 177.069 142.067L177.071 142.067C180.772 139.449 183.246 135.527 184.063 130.982C184.88 126.436 183.933 121.865 181.385 118.059V118.058Z" fill="#5B2D2D"/>
</svg>
